<mxfile host="app.diagrams.net" modified="2023-11-25T01:13:23.246Z" agent="Mozilla/5.0 (Windows NT 10.0; Win64; x64) AppleWebKit/537.36 (KHTML, like Gecko) Chrome/119.0.0.0 Safari/537.36" etag="f055-Kund6u_5msKUl6t" version="22.1.3" type="github">
  <diagram name="第 1 页" id="fyK2w9x_wLu6Zqn044wo">
    <mxGraphModel dx="1434" dy="750" grid="1" gridSize="10" guides="1" tooltips="1" connect="1" arrows="1" fold="1" page="1" pageScale="1" pageWidth="827" pageHeight="1169" background="#000000" math="0" shadow="0">
      <root>
        <mxCell id="0" />
        <mxCell id="1" parent="0" />
        <mxCell id="_d_0ufoZlzv4P_IjEhbe-8" style="edgeStyle=orthogonalEdgeStyle;rounded=0;orthogonalLoop=1;jettySize=auto;html=1;exitX=1;exitY=0.5;exitDx=0;exitDy=0;" parent="1" source="_d_0ufoZlzv4P_IjEhbe-5" target="_d_0ufoZlzv4P_IjEhbe-7" edge="1">
          <mxGeometry relative="1" as="geometry" />
        </mxCell>
        <mxCell id="_d_0ufoZlzv4P_IjEhbe-9" style="edgeStyle=orthogonalEdgeStyle;rounded=0;orthogonalLoop=1;jettySize=auto;html=1;strokeColor=#FCFCFC;strokeWidth=2;" parent="1" source="_d_0ufoZlzv4P_IjEhbe-5" target="_d_0ufoZlzv4P_IjEhbe-7" edge="1">
          <mxGeometry relative="1" as="geometry" />
        </mxCell>
        <mxCell id="_d_0ufoZlzv4P_IjEhbe-5" value="" style="ellipse;whiteSpace=wrap;html=1;aspect=fixed;fillColor=none;strokeColor=#FCFCFC;strokeWidth=2;" parent="1" vertex="1">
          <mxGeometry x="210" y="130" width="80" height="80" as="geometry" />
        </mxCell>
        <mxCell id="IaYbpyOjzUN4X8H3EIuW-2" style="rounded=0;orthogonalLoop=1;jettySize=auto;html=1;" parent="1" source="_d_0ufoZlzv4P_IjEhbe-7" target="IaYbpyOjzUN4X8H3EIuW-1" edge="1">
          <mxGeometry relative="1" as="geometry" />
        </mxCell>
        <mxCell id="_d_0ufoZlzv4P_IjEhbe-7" value="" style="ellipse;whiteSpace=wrap;html=1;aspect=fixed;fillColor=none;strokeColor=#FCFCFC;strokeWidth=2;" parent="1" vertex="1">
          <mxGeometry x="580" y="130" width="80" height="80" as="geometry" />
        </mxCell>
        <mxCell id="IaYbpyOjzUN4X8H3EIuW-1" value="" style="ellipse;whiteSpace=wrap;html=1;aspect=fixed;" parent="1" vertex="1">
          <mxGeometry x="210" y="380" width="80" height="80" as="geometry" />
        </mxCell>
        <mxCell id="MY0Sc1gCf6VerhmUe3aK-1" value="" style="ellipse;whiteSpace=wrap;html=1;aspect=fixed;fillColor=none;strokeColor=#FCFCFC;strokeWidth=2;" parent="1" vertex="1">
          <mxGeometry x="560" y="380" width="80" height="80" as="geometry" />
        </mxCell>
      </root>
    </mxGraphModel>
  </diagram>
</mxfile>
